<svg width="22" height="22" viewBox="0 0 22 22" fill="none" xmlns="http://www.w3.org/2000/svg">
<path fill-rule="evenodd" clip-rule="evenodd" d="M9.53031 2.65649C5.53652 2.65649 2.29895 5.89406 2.29895 9.88781C2.29895 13.8815 5.53652 17.1191 9.53031 17.1191C11.2202 17.1191 12.7758 16.5386 14.0067 15.5674L18.1106 19.6714C18.4429 20.0036 18.9816 20.0036 19.3139 19.6714C19.6461 19.3391 19.6461 18.8004 19.3139 18.4682L15.2098 14.3642C16.1811 13.1333 16.7616 11.5778 16.7616 9.88781C16.7616 5.89406 13.524 2.65649 9.53031 2.65649ZM4.00044 9.88781C4.00044 6.83377 6.47622 4.35798 9.53031 4.35798C12.5843 4.35798 15.0601 6.83377 15.0601 9.88781C15.0601 11.4151 14.4421 12.7963 13.4404 13.798C12.4388 14.7997 11.0576 15.4176 9.53031 15.4176C6.47622 15.4176 4.00044 12.9419 4.00044 9.88781Z" fill="black"/>
</svg>
