<svg width="101" height="24" viewBox="0 0 101 24" fill="none" xmlns="http://www.w3.org/2000/svg">
<path d="M35.3101 20H39.2746C43.5453 20 45.6722 17.5669 45.6722 13.9257V13.7896C45.6722 10.1484 43.5623 7.83438 39.2916 7.83438H35.3101V20ZM38.0666 17.8561V9.97825H39.1555C41.7247 9.97825 42.7967 11.3224 42.7967 13.8236V13.9597C42.7967 16.4779 41.6397 17.8561 39.1895 17.8561H38.0666ZM51.5693 20.1872C54.2406 20.1872 56.2654 18.4006 56.2654 15.5932V15.457C56.2654 12.6836 54.2576 10.8971 51.5863 10.8971C48.915 10.8971 46.8902 12.7176 46.8902 15.5081V15.6442C46.8902 18.4176 48.915 20.1872 51.5693 20.1872ZM51.5863 18.3155C50.1911 18.3155 49.4084 17.2946 49.4084 15.5932V15.457C49.4084 13.7555 50.2251 12.7687 51.5863 12.7687C52.9645 12.7687 53.7642 13.7896 53.7642 15.4911V15.6102C53.7642 17.2946 52.9645 18.3155 51.5863 18.3155ZM62.054 20.1872C64.7254 20.1872 66.7501 18.4006 66.7501 15.5932V15.457C66.7501 12.6836 64.7424 10.8971 62.0711 10.8971C59.3997 10.8971 57.375 12.7176 57.375 15.5081V15.6442C57.375 18.4176 59.3997 20.1872 62.054 20.1872ZM62.0711 18.3155C60.6758 18.3155 59.8932 17.2946 59.8932 15.5932V15.457C59.8932 13.7555 60.7099 12.7687 62.0711 12.7687C63.4493 12.7687 64.249 13.7896 64.249 15.4911V15.6102C64.249 17.2946 63.4493 18.3155 62.0711 18.3155ZM69.6803 9.89317C70.48 9.89317 71.0925 9.31467 71.0925 8.549C71.0925 7.78333 70.48 7.20483 69.6803 7.20483C68.8976 7.20483 68.2851 7.78333 68.2851 8.549C68.2851 9.31467 68.8976 9.89317 69.6803 9.89317ZM68.4722 20H70.9224V11.1012H68.4722V20ZM76.4394 20.1701C77.103 20.1701 77.5964 20.051 77.9367 19.9319V18.0263C77.6475 18.1454 77.3753 18.1964 77.0009 18.1964C76.3714 18.1964 76.0141 17.8561 76.0141 17.1415V12.8538H77.8857V11.1012H76.0141V9.17855H73.5639V11.1012H72.4239V12.8538H73.5639V17.3627C73.5639 19.2173 74.5678 20.1701 76.4394 20.1701Z" fill="black"/>
<rect x="0.630362" y="1.31684" width="22.4351" height="21.7114" rx="3.49795" fill="white" stroke="black" stroke-width="0.723714"/>
<path d="M11.2547 6.35402L16.0974 11.944L27.1663 2.1615" stroke="black" stroke-width="2.83492" stroke-linecap="round" stroke-linejoin="round"/>
</svg>
